<?xml version="1.0" encoding="UTF-8" standalone="no"?><svg xmlns="http://www.w3.org/2000/svg" xmlns:xlink="http://www.w3.org/1999/xlink" contentScriptType="application/ecmascript" contentStyleType="text/css" height="273px" preserveAspectRatio="none" style="width:336px;height:273px;" version="1.1" viewBox="0 0 336 273" width="336px" zoomAndPan="magnify"><defs/><g><!--MD5=[a6f11bb19cee6b13000111f5ad685e8b]
cluster Dependencies--><path d="M25,178 L119,178 A4.5,4.5 0 0 1 122,181 L129,198.4844 L321,198.4844 A3,3 0 0 1 324,201.4844 L324,258 A3,3 0 0 1 321,261 L25,261 A3,3 0 0 1 22,258 L22,181 A3,3 0 0 1 25,178 " fill="#FFFFFF" style="stroke: #000000; stroke-width: 1.5;"/><line style="stroke: #000000; stroke-width: 1.5;" x1="22" x2="129" y1="198.4844" y2="198.4844"/><text fill="#000000" font-family="Tahoma, sans-serif" font-size="12" font-weight="bold" lengthAdjust="spacingAndGlyphs" textLength="94" x="26" y="192.0059">Dependencies</text><!--MD5=[a8bd0b0e57844b4c39dad109d1d70bf6]
entity @vitejs--><rect fill="#F8F8F8" height="34.4844" rx="3" ry="3" style="stroke: #383838; stroke-width: 1.0;" width="63" x="244.5" y="211"/><rect fill="#F8F8F8" height="5" style="stroke: #383838; stroke-width: 1.0;" width="10" x="239.5" y="216"/><rect fill="#F8F8F8" height="5" style="stroke: #383838; stroke-width: 1.0;" width="10" x="239.5" y="235.4844"/><text fill="#000000" font-family="Tahoma, sans-serif" font-size="12" lengthAdjust="spacingAndGlyphs" textLength="43" x="254.5" y="233.0059">@vitejs</text><!--MD5=[cb3d66c929489a99ecf6c8633ae21583]
entity react--><rect fill="#F8F8F8" height="34.4844" rx="3" ry="3" style="stroke: #383838; stroke-width: 1.0;" width="49" x="130.5" y="211"/><rect fill="#F8F8F8" height="5" style="stroke: #383838; stroke-width: 1.0;" width="10" x="125.5" y="216"/><rect fill="#F8F8F8" height="5" style="stroke: #383838; stroke-width: 1.0;" width="10" x="125.5" y="235.4844"/><text fill="#000000" font-family="Tahoma, sans-serif" font-size="12" lengthAdjust="spacingAndGlyphs" textLength="29" x="140.5" y="233.0059">react</text><!--MD5=[7a87f47ef40d6587eff4ec588325b680]
entity react-dom--><rect fill="#F8F8F8" height="34.4844" rx="3" ry="3" style="stroke: #383838; stroke-width: 1.0;" width="80" x="38" y="211"/><rect fill="#F8F8F8" height="5" style="stroke: #383838; stroke-width: 1.0;" width="10" x="33" y="216"/><rect fill="#F8F8F8" height="5" style="stroke: #383838; stroke-width: 1.0;" width="10" x="33" y="235.4844"/><text fill="#000000" font-family="Tahoma, sans-serif" font-size="12" lengthAdjust="spacingAndGlyphs" textLength="60" x="48" y="233.0059">react-dom</text><!--MD5=[16ee6c914a0ef0dd1826f22865f644df]
entity vite--><rect fill="#F8F8F8" height="34.4844" rx="3" ry="3" style="stroke: #383838; stroke-width: 1.0;" width="40" x="192" y="211"/><rect fill="#F8F8F8" height="5" style="stroke: #383838; stroke-width: 1.0;" width="10" x="187" y="216"/><rect fill="#F8F8F8" height="5" style="stroke: #383838; stroke-width: 1.0;" width="10" x="187" y="235.4844"/><text fill="#000000" font-family="Tahoma, sans-serif" font-size="12" lengthAdjust="spacingAndGlyphs" textLength="20" x="202" y="233.0059">vite</text><ellipse cx="167.8492" cy="21.242" fill="#F8F8F8" rx="17.8492" ry="13.242" style="stroke: #383838; stroke-width: 0.5;"/><text fill="#000000" font-family="Tahoma, sans-serif" font-size="12" lengthAdjust="spacingAndGlyphs" textLength="21" x="157.3492" y="24.9842">App</text><ellipse cx="176.9117" cy="72.242" fill="#F8F8F8" rx="53.9117" ry="13.242" style="stroke: #383838; stroke-width: 0.5;"/><text fill="#000000" font-family="Tahoma, sans-serif" font-size="12" lengthAdjust="spacingAndGlyphs" textLength="72" x="140.9117" y="75.9842">CountButton</text><ellipse cx="104.1274" cy="21.242" fill="#F8F8F8" rx="25.6274" ry="13.242" style="stroke: #383838; stroke-width: 0.5;"/><text fill="#000000" font-family="Tahoma, sans-serif" font-size="12" font-weight="bold" lengthAdjust="spacingAndGlyphs" textLength="32" x="88.1274" y="24.9842">main</text><ellipse cx="246.9619" cy="21.242" fill="#F8F8F8" rx="48.9619" ry="13.242" style="stroke: #383838; stroke-width: 0.5;"/><text fill="#000000" font-family="Tahoma, sans-serif" font-size="12" font-weight="bold" lengthAdjust="spacingAndGlyphs" textLength="65" x="214.4619" y="24.9842">vite-env.d</text><ellipse cx="261.9975" cy="149.242" fill="#F8F8F8" rx="52.4975" ry="13.242" style="stroke: #383838; stroke-width: 0.5;"/><text fill="#000000" font-family="Tahoma, sans-serif" font-size="12" font-weight="bold" lengthAdjust="spacingAndGlyphs" textLength="70" x="226.9975" y="152.9842">vite.config</text><!--MD5=[86704c08774e29675f7b5890695c98db]
link App to CountButton--><path d="M170.225,34.112 C171.298,39.958 172.606,47.079 173.786,53.501 " fill="none" id="App-&gt;CountButton" style="stroke: #000000; stroke-width: 0.5;"/><polygon fill="#000000" points="174.738,58.687,177.0469,49.1126,173.835,53.7692,169.1784,50.5574,174.738,58.687" style="stroke: #000000; stroke-width: 0.5;"/><!--MD5=[232fb6350876663a1e79380a6b2178c6]
link CountButton to react--><path d="M175.274,85.084 C171.543,111.199 162.689,173.176 158.013,205.9085 " fill="none" id="CountButton-&gt;react" style="stroke: #000000; stroke-width: 0.5;"/><polygon fill="#000000" points="157.3,210.9009,162.5332,202.5574,158.0074,205.9512,154.6136,201.4255,157.3,210.9009" style="stroke: #000000; stroke-width: 0.5;"/><!--MD5=[98b2976d578f59c2ce5141901855aab1]
link <b>main</b> to App--><path d="M130,21 C134.869,21 139.738,21 144.607,21 " fill="none" id="&lt;b&gt;main&lt;/b&gt;-&gt;App" style="stroke: #000000; stroke-width: 1.0;"/><polygon fill="#000000" points="149.891,21,140.891,17,144.891,21,140.891,25,149.891,21" style="stroke: #000000; stroke-width: 1.0;"/><!--MD5=[fedf798cdc390bef13f25fac93c58735]
link <b>main</b> to react--><path d="M106.285,34.123 C108.733,46.843 112.832,67.395 117,85 C127.24,128.25 141.135,178.3744 148.972,206.0023 " fill="none" id="&lt;b&gt;main&lt;/b&gt;-&gt;react" style="stroke: #000000; stroke-width: 1.0;"/><polygon fill="#000000" points="150.363,210.8925,151.7482,201.1415,148.9951,206.0833,144.0534,203.3302,150.363,210.8925" style="stroke: #000000; stroke-width: 1.0;"/><!--MD5=[15681cc1ee4eb4e9d5beca42972c5697]
link <b>main</b> to react-dom--><path d="M100.2393,33.881 C98.0987,41.08 95.544,50.489 94,59 C84.5575,111.051 80.4755,173.249 78.8895,205.3887 " fill="none" id="&lt;b&gt;main&lt;/b&gt;-&gt;react-dom" style="stroke: #000000; stroke-width: 1.0;"/><polygon fill="#000000" points="78.6388,210.6571,83.0624,201.8576,78.8767,205.6628,75.0715,201.477,78.6388,210.6571" style="stroke: #000000; stroke-width: 1.0;"/><!--MD5=[8a7626eb7db94c02ceea6a212dbdba13]
link <b>vite.config</b> to @vitejs--><path d="M264.188,162.031 C266.311,173.709 269.579,191.6847 272.14,205.7699 " fill="none" id="&lt;b&gt;vite.config&lt;/b&gt;-&gt;@vitejs" style="stroke: #000000; stroke-width: 1.0;"/><polygon fill="#000000" points="273.048,210.7644,275.373,201.1939,272.1533,205.8451,267.5021,202.6254,273.048,210.7644" style="stroke: #000000; stroke-width: 1.0;"/><!--MD5=[de64b6ff495cb4ad66ab667cf8506e27]
link <b>vite.config</b> to vite--><path d="M246.524,161.877 C243.816,164.377 241.174,167.133 239,170 C230.722,180.9178 224.086,194.7801 219.465,206.1003 " fill="none" id="&lt;b&gt;vite.config&lt;/b&gt;-&gt;vite" style="stroke: #000000; stroke-width: 1.0;"/><polygon fill="#000000" points="217.608,210.7802,224.6442,203.8887,219.4513,206.1324,217.2076,200.9395,217.608,210.7802" style="stroke: #000000; stroke-width: 1.0;"/><script type="text/plantuml"><![CDATA[MD5=[e708c5641f00979b5acb3ff648ed50e0]
@startuml

scale max 1920 width
top to bottom direction

skinparam nodesep 12
skinparam ranksep 25
skinparam monochrome true
skinparam shadowing false
skinparam defaultFontName Tahoma
skinparam defaultFontSize 12
skinparam roundCorner 6
skinparam dpi 150
skinparam arrowColor black
skinparam arrowThickness 0.5
skinparam packageTitleAlignment left

skinparam usecase {
  borderThickness 0.5
}

skinparam rectangle {
  borderThickness 0.5
}

skinparam component {
  borderThickness 1
}


(App)
(CountButton)
(<b>main</b>)
(<b>vite-env.d</b>)
(<b>vite.config</b>)

package "Dependencies" {
  [@vitejs]
  [react]
  [react-dom]
  [vite]
}

(App) --> (CountButton)
(CountButton) ----> [react]
(<b>main</b>) -[thickness=1]> (App)
(<b>main</b>) ---[thickness=1]> [react]
(<b>main</b>) ---[thickness=1]> [react-dom]
(<b>vite.config</b>) --[thickness=1]> [@vitejs]
(<b>vite.config</b>) --[thickness=1]> [vite]

@enduml


' View and edit on https://arkit.pro
]]></script></g></svg>